<svg xmlns="http://www.w3.org/2000/svg" width="1200" height="630" viewBox="0 0 1200 630">
  <defs>
    <linearGradient id="bg" x1="0" y1="0" x2="1" y2="1">
      <stop offset="0" stop-color="#070010"/>
      <stop offset="0.45" stop-color="#13051f"/>
      <stop offset="1" stop-color="#2b0718"/>
    </linearGradient>
    <radialGradient id="g1" cx="25%" cy="25%" r="55%">
      <stop offset="0" stop-color="#8b5cf6" stop-opacity="0.55"/>
      <stop offset="1" stop-color="#8b5cf6" stop-opacity="0"/>
    </radialGradient>
    <radialGradient id="g2" cx="82%" cy="35%" r="55%">
      <stop offset="0" stop-color="#ff2f82" stop-opacity="0.55"/>
      <stop offset="1" stop-color="#ff2f82" stop-opacity="0"/>
    </radialGradient>
    <linearGradient id="btn" x1="0" y1="0" x2="1" y2="0">
      <stop stop-color="#8b5cf6"/>
      <stop offset="1" stop-color="#ff2f82"/>
    </linearGradient>
    <filter id="shadow" x="-20%" y="-20%" width="140%" height="140%">
      <feDropShadow dx="0" dy="18" stdDeviation="25" flood-color="#000" flood-opacity="0.45"/>
    </filter>
  </defs>
  <rect width="1200" height="630" fill="url(#bg)"/>
  <rect width="1200" height="630" fill="url(#g1)"/>
  <rect width="1200" height="630" fill="url(#g2)"/>
  <g opacity="0.16">
    <circle cx="120" cy="90" r="90" fill="#fff"/>
    <circle cx="1070" cy="520" r="150" fill="#fff"/>
    <circle cx="960" cy="110" r="70" fill="#fff"/>
  </g>
  <rect x="72" y="70" width="1056" height="490" rx="46" fill="rgba(255,255,255,0.055)" stroke="rgba(255,255,255,0.16)" filter="url(#shadow)"/>
  <g transform="translate(120 118)">
    <rect width="122" height="122" rx="31" fill="#090014" stroke="rgba(255,255,255,0.16)"/>
    <circle cx="61" cy="61" r="42" fill="url(#btn)"/>
    <path d="M61 31v45" stroke="#fff" stroke-width="12" stroke-linecap="round"/>
    <path d="M38 67l23 27 23-27" fill="none" stroke="#fff" stroke-width="12" stroke-linecap="round" stroke-linejoin="round"/>
    <path d="M35 100h52" stroke="#fff" stroke-width="9" stroke-linecap="round" opacity="0.95"/>
  </g>
  <text x="270" y="158" fill="#a78bfa" font-family="Arial, Helvetica, sans-serif" font-size="30" font-weight="800" letter-spacing="5">VIROTIK</text>
  <text x="120" y="320" fill="#ffffff" font-family="Arial, Helvetica, sans-serif" font-size="76" font-weight="900">TikTok Video Downloader</text>
  <text x="120" y="405" fill="#ffffff" font-family="Arial, Helvetica, sans-serif" font-size="58" font-weight="800">Download TikTok Videos in MP4</text>
  <text x="120" y="475" fill="#c7bdd4" font-family="Arial, Helvetica, sans-serif" font-size="30" font-weight="600">Paste a public TikTok link, choose quality, and save the video.</text>
  <rect x="120" y="505" width="315" height="58" rx="29" fill="url(#btn)"/>
  <text x="155" y="543" fill="#fff" font-family="Arial, Helvetica, sans-serif" font-size="25" font-weight="900">www.virotik.com</text>
</svg>
